<svg width="97" height="44" viewBox="0 0 97 44" fill="none" xmlns="http://www.w3.org/2000/svg">
<path d="M40.12 22.06V23.54H36.32V36H34.5V23.54H30.68V22.06H40.12ZM43.3003 23.26C42.9536 23.26 42.6603 23.14 42.4203 22.9C42.1803 22.66 42.0603 22.3667 42.0603 22.02C42.0603 21.6733 42.1803 21.38 42.4203 21.14C42.6603 20.9 42.9536 20.78 43.3003 20.78C43.6336 20.78 43.9136 20.9 44.1403 21.14C44.3803 21.38 44.5003 21.6733 44.5003 22.02C44.5003 22.3667 44.3803 22.66 44.1403 22.9C43.9136 23.14 43.6336 23.26 43.3003 23.26ZM44.1803 25.04V36H42.3603V25.04H44.1803ZM46.6022 30.5C46.6022 29.3667 46.8289 28.38 47.2822 27.54C47.7355 26.6867 48.3622 26.0267 49.1622 25.56C49.9755 25.0933 50.9022 24.86 51.9422 24.86C53.2889 24.86 54.3955 25.1867 55.2622 25.84C56.1422 26.4933 56.7222 27.4 57.0022 28.56H55.0422C54.8555 27.8933 54.4889 27.3667 53.9422 26.98C53.4089 26.5933 52.7422 26.4 51.9422 26.4C50.9022 26.4 50.0622 26.76 49.4222 27.48C48.7822 28.1867 48.4622 29.1933 48.4622 30.5C48.4622 31.82 48.7822 32.84 49.4222 33.56C50.0622 34.28 50.9022 34.64 51.9422 34.64C52.7422 34.64 53.4089 34.4533 53.9422 34.08C54.4755 33.7067 54.8422 33.1733 55.0422 32.48H57.0022C56.7089 33.6 56.1222 34.5 55.2422 35.18C54.3622 35.8467 53.2622 36.18 51.9422 36.18C50.9022 36.18 49.9755 35.9467 49.1622 35.48C48.3622 35.0133 47.7355 34.3533 47.2822 33.5C46.8289 32.6467 46.6022 31.6467 46.6022 30.5ZM66.9827 26.54V33C66.9827 33.5333 67.096 33.9133 67.3227 34.14C67.5493 34.3533 67.9427 34.46 68.5027 34.46H69.8427V36H68.2027C67.1893 36 66.4293 35.7667 65.9227 35.3C65.416 34.8333 65.1627 34.0667 65.1627 33V26.54H63.7427V25.04H65.1627V22.28H66.9827V25.04H69.8427V26.54H66.9827ZM84.8834 30.5C84.8834 29.3667 85.1101 28.38 85.5634 27.54C86.0168 26.6867 86.6434 26.0267 87.4434 25.56C88.2568 25.0933 89.1834 24.86 90.2234 24.86C91.5701 24.86 92.6768 25.1867 93.5434 25.84C94.4234 26.4933 95.0034 27.4 95.2834 28.56H93.3234C93.1368 27.8933 92.7701 27.3667 92.2234 26.98C91.6901 26.5933 91.0234 26.4 90.2234 26.4C89.1834 26.4 88.3434 26.76 87.7034 27.48C87.0634 28.1867 86.7434 29.1933 86.7434 30.5C86.7434 31.82 87.0634 32.84 87.7034 33.56C88.3434 34.28 89.1834 34.64 90.2234 34.64C91.0234 34.64 91.6901 34.4533 92.2234 34.08C92.7568 33.7067 93.1234 33.1733 93.3234 32.48H95.2834C94.9901 33.6 94.4034 34.5 93.5234 35.18C92.6434 35.8467 91.5434 36.18 90.2234 36.18C89.1834 36.18 88.2568 35.9467 87.4434 35.48C86.6434 35.0133 86.0168 34.3533 85.5634 33.5C85.1101 32.6467 84.8834 31.6467 84.8834 30.5Z" fill="white"/>
<path d="M71.3678 30.48C71.3678 29.36 71.5945 28.38 72.0478 27.54C72.5011 26.6867 73.1211 26.0267 73.9078 25.56C74.7078 25.0933 75.5945 24.86 76.5678 24.86C77.5278 24.86 78.3611 25.0667 79.0678 25.48C79.7745 25.8933 80.3011 26.4133 80.6478 27.04V25.04H82.4878V36H80.6478V33.96C80.2878 34.6 79.7478 35.1333 79.0278 35.56C78.3211 35.9733 77.4945 36.18 76.5478 36.18C75.5745 36.18 74.6945 35.94 73.9078 35.46C73.1211 34.98 72.5011 34.3067 72.0478 33.44C71.5945 32.5733 71.3678 31.5867 71.3678 30.48ZM80.6478 30.5C80.6478 29.6733 80.4811 28.9533 80.1478 28.34C79.8145 27.7267 79.3611 27.26 78.7878 26.94C78.2278 26.6067 77.6078 26.44 76.9278 26.44C76.2478 26.44 75.6278 26.6 75.0678 26.92C74.5078 27.24 74.0611 27.7067 73.7278 28.32C73.3945 28.9333 73.2278 29.6533 73.2278 30.48C73.2278 31.32 73.3945 32.0533 73.7278 32.68C74.0611 33.2933 74.5078 33.7667 75.0678 34.1C75.6278 34.42 76.2478 34.58 76.9278 34.58C77.6078 34.58 78.2278 34.42 78.7878 34.1C79.3611 33.7667 79.8145 33.2933 80.1478 32.68C80.4811 32.0533 80.6478 31.3267 80.6478 30.5Z" fill="#1EB007"/>
<path d="M26.8722 7.20902L16.1284 38.4111C7.64993 33.2217 -4.82154 14.6496 19.072 13.513C20.7666 12.6519 23.9998 8.49001 26.8722 7.20902Z" fill="#FFE03C"/>
<path d="M19.072 13.513C20.7666 12.6519 23.9998 8.49001 26.8722 7.20902L16.1284 38.4111C7.64993 33.2217 -4.82154 14.6496 19.072 13.513ZM19.072 13.513C18.4517 13.8282 10.0546 27.8072 17.5002 32.0734" stroke="#1EB007"/>
</svg>
